<?xml version="1.0" standalone="no"?>
<!DOCTYPE svg PUBLIC "-//W3C//DTD SVG 20010904//EN"
 "http://www.w3.org/TR/2001/REC-SVG-20010904/DTD/svg10.dtd">
<svg version="1.0" xmlns="http://www.w3.org/2000/svg"
 width="400.000000pt" height="400.000000pt" viewBox="0 0 400.000000 400.000000"
 preserveAspectRatio="xMidYMid meet">
<metadata>
Created by potrace 1.11, written by Peter Selinger 2001-2013
</metadata>
<g transform="translate(0.000000,400.000000) scale(0.100000,-0.100000)"
fill="#000000" stroke="none">
<path d="M1555 3827 c3 -6 -40 -201 -96 -432 -56 -231 -105 -438 -109 -460 -5
-22 -29 -125 -54 -228 -25 -104 -46 -195 -46 -203 0 -8 -4 -12 -10 -9 -5 3 -7
0 -4 -8 2 -7 -15 -96 -39 -198 -25 -101 -113 -472 -197 -824 -83 -352 -154
-647 -157 -655 -3 -8 -7 -24 -9 -35 -2 -19 -40 -181 -128 -542 l-41 -173 25 0
c14 0 332 0 708 0 540 0 681 -3 676 -13 -6 -9 -5 -9 7 0 12 10 165 13 649 13
348 0 636 2 638 4 2 3 -15 83 -37 179 -23 96 -43 185 -45 198 -2 13 -6 31 -9
39 -16 39 -67 275 -63 287 3 8 2 12 -2 9 -7 -4 -117 441 -117 474 0 8 -2 17
-5 20 -5 5 -141 565 -145 600 -1 8 -5 22 -8 30 -5 13 -76 311 -380 1592 l-82
348 -462 0 c-367 0 -461 -3 -458 -13z"/>
</g>
</svg>
